<?xml version="1.0" encoding="UTF-8" standalone="no"?>
<svg
   xmlns:dc="http://purl.org/dc/elements/1.1/"
   xmlns:cc="http://creativecommons.org/ns#"
   xmlns:rdf="http://www.w3.org/1999/02/22-rdf-syntax-ns#"
   xmlns:svg="http://www.w3.org/2000/svg"
   xmlns="http://www.w3.org/2000/svg"
   xmlns:xlink="http://www.w3.org/1999/xlink"
   xmlns:sodipodi="http://sodipodi.sourceforge.net/DTD/sodipodi-0.dtd"
   xmlns:inkscape="http://www.inkscape.org/namespaces/inkscape"
   viewBox="0 0 32 32"
   id="svg2"
   version="1.1"
   sodipodi:docname="start.svg"
   inkscape:version="0.92.3 (2405546, 2018-03-11)"
   width="32"
   height="32">
  <sodipodi:namedview
     pagecolor="#828282"
     bordercolor="#666666"
     borderopacity="1"
     objecttolerance="10"
     gridtolerance="10"
     guidetolerance="10"
     inkscape:pageopacity="0"
     inkscape:pageshadow="2"
     inkscape:window-width="1920"
     inkscape:window-height="1011"
     id="namedview17"
     showgrid="true"
     inkscape:zoom="5.656854"
     inkscape:cx="-23.451779"
     inkscape:cy="-15.615691"
     inkscape:window-x="0"
     inkscape:window-y="0"
     inkscape:window-maximized="1"
     inkscape:current-layer="svg2"
     fit-margin-top="0"
     fit-margin-left="0"
     fit-margin-right="0"
     fit-margin-bottom="0"
     inkscape:snap-bbox="true"
     inkscape:bbox-nodes="true"
     units="in">
    <inkscape:grid
       type="xygrid"
       id="grid938"
       originx="-22"
       originy="32" />
  </sodipodi:namedview>
  <metadata
     id="metadata21">
    <rdf:RDF>
      <cc:Work
         rdf:about="">
        <dc:format>image/svg+xml</dc:format>
        <dc:type
           rdf:resource="http://purl.org/dc/dcmitype/StillImage" />
        <dc:title />
      </cc:Work>
    </rdf:RDF>
  </metadata>
  <defs
     id="defs3051">
    <style
       type="text/css"
       id="current-color-scheme">
      .ColorScheme-Text {
        color:#31363b;
      }
      </style>
    <linearGradient
       gradientTransform="matrix(0.72727273,0,0,0.72727273,8.7272727,110.08636)"
       inkscape:collect="always"
       xlink:href="#linearGradient921"
       id="linearGradient1454-9"
       x1="32"
       y1="337.64999"
       x2="54"
       y2="315.64999"
       gradientUnits="userSpaceOnUse" />
    <linearGradient
       inkscape:collect="always"
       id="linearGradient921">
      <stop
         style="stop-color:#248052;stop-opacity:1"
         offset="0"
         id="stop917" />
      <stop
         style="stop-color:#0e44b2;stop-opacity:1"
         offset="1"
         id="stop919" />
    </linearGradient>
    <linearGradient
       gradientTransform="matrix(0.7,0,0,0.7,9.9,118.99499)"
       inkscape:collect="always"
       xlink:href="#linearGradient4582"
       id="linearGradient1454-6-3"
       x1="32"
       y1="337.64999"
       x2="54"
       y2="315.64999"
       gradientUnits="userSpaceOnUse" />
    <linearGradient
       id="linearGradient4582"
       inkscape:collect="always">
      <stop
         id="stop4578"
         offset="0"
         style="stop-color:#2ab672;stop-opacity:1" />
      <stop
         id="stop4580"
         offset="1"
         style="stop-color:#127aee;stop-opacity:1" />
    </linearGradient>
    <linearGradient
       inkscape:collect="always"
       xlink:href="#linearGradient921"
       id="linearGradient1727-4"
       x1="16.478369"
       y1="351.64999"
       x2="26.478369"
       y2="341.64999"
       gradientUnits="userSpaceOnUse"
       gradientTransform="translate(18.521631,2)" />
    <linearGradient
       inkscape:collect="always"
       xlink:href="#linearGradient921"
       id="linearGradient1454"
       x1="32"
       y1="337.64999"
       x2="54"
       y2="315.64999"
       gradientUnits="userSpaceOnUse" />
    <linearGradient
       gradientTransform="translate(0,-3.8964844e-6)"
       inkscape:collect="always"
       xlink:href="#linearGradient4582"
       id="linearGradient1454-6"
       x1="32"
       y1="337.64999"
       x2="54"
       y2="315.64999"
       gradientUnits="userSpaceOnUse" />
    <linearGradient
       inkscape:collect="always"
       xlink:href="#linearGradient4582"
       id="linearGradient852-2"
       x1="5.008184"
       y1="295.33688"
       x2="11.887351"
       y2="288.45773"
       gradientUnits="userSpaceOnUse"
       gradientTransform="matrix(2.6996625,0,0,2.6996625,20.237332,-461.3742)" />
    <linearGradient
       inkscape:collect="always"
       xlink:href="#linearGradient921"
       id="linearGradient1361"
       x1="34"
       y1="335.64999"
       x2="52"
       y2="317.64999"
       gradientUnits="userSpaceOnUse" />
    <linearGradient
       inkscape:collect="always"
       xlink:href="#linearGradient921"
       id="linearGradient923"
       x1="-21"
       y1="321.64999"
       x2="9"
       y2="291.64999"
       gradientUnits="userSpaceOnUse"
       gradientTransform="translate(53,-8)" />
    <linearGradient
       inkscape:collect="always"
       xlink:href="#linearGradient4582"
       id="linearGradient852"
       x1="5.008184"
       y1="295.33688"
       x2="11.887351"
       y2="288.45773"
       gradientUnits="userSpaceOnUse"
       gradientTransform="matrix(3.7795275,0,0,3.7795275,15.071431,-804.58391)" />
    <linearGradient
       inkscape:collect="always"
       xlink:href="#linearGradient921"
       id="linearGradient931"
       x1="-14"
       y1="315.64999"
       x2="2"
       y2="298.64999"
       gradientUnits="userSpaceOnUse"
       gradientTransform="translate(53,-8)" />
  </defs>
  <g
     transform="translate(-27,-282.64999)"
     id="22-22-start-here-kde">
    <path
       inkscape:connector-curvature="0"
       id="rect1446"
       d="m 34,315.64999 h 18 c 1.108,0 2,0.892 2,2 v 18 c 0,1.108 -0.892,2 -2,2 H 34 c -1.108,0 -2,-0.892 -2,-2 v -18 c 0,-1.108 0.892,-2 2,-2 z"
       style="opacity:1;vector-effect:none;fill:url(#linearGradient1454);fill-opacity:1;stroke:none;stroke-width:2;stroke-linecap:round;stroke-linejoin:round;stroke-miterlimit:4;stroke-dasharray:none;stroke-dashoffset:0;stroke-opacity:1" />
    <path
       inkscape:connector-curvature="0"
       id="rect1446-4"
       d="m 34,316.64999 h 18 c 0.554,0 1,0.446 1,1 v 18 c 0,0.554 -0.446,1 -1,1 H 34 c -0.554,0 -1,-0.446 -1,-1 v -18 c 0,-0.554 0.446,-1 1,-1 z"
       style="opacity:1;vector-effect:none;fill:url(#linearGradient1454-6);fill-opacity:1;stroke:none;stroke-width:2;stroke-linecap:round;stroke-linejoin:round;stroke-miterlimit:4;stroke-dasharray:none;stroke-dashoffset:0;stroke-opacity:1" />
    <path
       id="rect843-3-3"
       d="m 33.757738,316.64999 h 18.571428 c 0.395714,0 0.714286,0.31857 0.714286,0.71429 v 18.57142 c 0,0.39572 -0.318572,0.71429 -0.714286,0.71429 H 33.757738 c -0.395714,0 -0.714286,-0.31857 -0.714286,-0.71429 v -18.57142 c 0,-0.39572 0.318572,-0.71429 0.714286,-0.71429 z"
       style="opacity:1;fill:url(#linearGradient852-2);fill-opacity:1;stroke:none;stroke-width:1.59542763;stroke-linecap:round;stroke-linejoin:round;stroke-miterlimit:4;stroke-dasharray:none;stroke-opacity:1"
       inkscape:connector-curvature="0" />
    <path
       id="rect1239-3"
       d="m 39,321.64999 c -1.108,0 -2,0.892 -2,2 0,1.108 0.892,2 2,2 h 1 v 4 h -1 c -1.108,0 -2,0.892 -2,2 0,1.108 0.892,2 2,2 1.108,0 2,-0.892 2,-2 v -1 h 4 v 1 c 0,1.108 0.892,2 2,2 1.108,0 2,-0.892 2,-2 0,-1.108 -0.892,-2 -2,-2 h -1 v -4 h 1 c 1.108,0 2,-0.892 2,-2 0,-1.108 -0.892,-2 -2,-2 -1.108,0 -2,0.892 -2,2 v 1 h -4 v -1 c 0,-1.108 -0.892,-2 -2,-2 z m 0,1 c 0.554,0 1,0.446 1,1 v 1 h -1 c -0.554,0 -1,-0.446 -1,-1 0,-0.554 0.446,-1 1,-1 z m 8,0 c 0.554,0 1,0.446 1,1 0,0.554 -0.446,1 -1,1 h -1 v -1 c 0,-0.554 0.446,-1 1,-1 z m -6,3 h 4 v 4 h -4 z m -2,5 h 1 v 1 c 0,0.554 -0.446,1 -1,1 -0.554,0 -1,-0.446 -1,-1 0,-0.554 0.446,-1 1,-1 z m 7,0 h 1 c 0.554,0 1,0.446 1,1 0,0.554 -0.446,1 -1,1 -0.554,0 -1,-0.446 -1,-1 z"
       style="opacity:1;vector-effect:none;fill:url(#linearGradient1361);fill-opacity:1;stroke:none;stroke-width:2;stroke-linecap:round;stroke-linejoin:round;stroke-miterlimit:4;stroke-dasharray:none;stroke-dashoffset:0;stroke-opacity:1"
       inkscape:connector-curvature="0" />
    <path
       inkscape:connector-curvature="0"
       id="rect1239"
       transform="translate(0,282.64999)"
       d="m 39,38 c -1.108,0 -2,0.892 -2,2 0,1.108 0.892,2 2,2 h 1 v 4 h -1 c -1.108,0 -2,0.892 -2,2 0,1.108 0.892,2 2,2 1.108,0 2,-0.892 2,-2 v -1 h 4 v 1 c 0,1.108 0.892,2 2,2 1.108,0 2,-0.892 2,-2 0,-1.108 -0.892,-2 -2,-2 h -1 v -4 h 1 c 1.108,0 2,-0.892 2,-2 0,-1.108 -0.892,-2 -2,-2 -1.108,0 -2,0.892 -2,2 v 1 h -4 v -1 c 0,-1.108 -0.892,-2 -2,-2 z m 0,1 c 0.554,0 1,0.446 1,1 v 1 h -1 c -0.554,0 -1,-0.446 -1,-1 0,-0.554 0.446,-1 1,-1 z m 8,0 c 0.554,0 1,0.446 1,1 0,0.554 -0.446,1 -1,1 h -1 v -1 c 0,-0.554 0.446,-1 1,-1 z m -6,3 h 4 v 4 h -4 z m -2,5 h 1 v 1 c 0,0.554 -0.446,1 -1,1 -0.554,0 -1,-0.446 -1,-1 0,-0.554 0.446,-1 1,-1 z m 7,0 h 1 c 0.554,0 1,0.446 1,1 0,0.554 -0.446,1 -1,1 -0.554,0 -1,-0.446 -1,-1 z"
       style="opacity:1;vector-effect:none;fill:#ffffff;fill-opacity:1;stroke:none;stroke-width:2;stroke-linecap:round;stroke-linejoin:round;stroke-miterlimit:4;stroke-dasharray:none;stroke-dashoffset:0;stroke-opacity:1" />
  </g>
  <g
     transform="translate(-24,-283.64999)"
     id="16-16-start-here-kde">
    <rect
       ry="1"
       y="339.64999"
       x="32"
       height="16"
       width="16"
       id="rect1446-6"
       style="opacity:1;vector-effect:none;fill:url(#linearGradient1454-9);fill-opacity:1;stroke:none;stroke-width:1.4545455;stroke-linecap:round;stroke-linejoin:round;stroke-miterlimit:4;stroke-dasharray:none;stroke-dashoffset:0;stroke-opacity:1" />
    <rect
       y="340.64999"
       x="33"
       height="13.999997"
       width="14"
       id="rect1446-4-8"
       style="opacity:1;vector-effect:none;fill:url(#linearGradient1454-6-3);fill-opacity:1;stroke:none;stroke-width:1.39999998;stroke-linecap:round;stroke-linejoin:round;stroke-miterlimit:4;stroke-dasharray:none;stroke-dashoffset:0;stroke-opacity:1" />
    <path
       id="rect1636-9-7"
       d="m 37,343.64999 c -1.108,0 -2,0.892 -2,2 0,1.108 0.892,2 2,2 h 1 v 2 h -1 c -1.108,0 -2,0.892 -2,2 0,1.108 0.892,2 2,2 1.108,0 2,-0.892 2,-2 v -1 h 2 v 1 c 0,1.108 0.892,2 2,2 1.108,0 2,-0.892 2,-2 0,-1.108 -0.892,-2 -2,-2 h -1 v -2 h 1 c 1.108,0 2,-0.892 2,-2 0,-1.108 -0.892,-2 -2,-2 -1.108,0 -2,0.892 -2,2 v 1 h -2 v -1 c 0,-1.108 -0.892,-2 -2,-2 z m 0,1 c 0.553999,0 1,0.446 1,1 v 1 h -1 c -0.553999,0 -1,-0.446 -1,-1 0,-0.554 0.446001,-1 1,-1 z m 6,0 c 0.553999,0 1,0.446 1,1 0,0.554 -0.446001,1 -1,1 h -1 v -1 c 0,-0.554 0.446001,-1 1,-1 z m -4,3 h 2 v 2 h -2 z m -2,3 h 1 v 1 c 0,0.554 -0.446001,1 -1,1 -0.553999,0 -1,-0.446 -1,-1 0,-0.554 0.446001,-1 1,-1 z m 5,0 h 1 c 0.553999,0 1,0.446 1,1 0,0.554 -0.446001,1 -1,1 -0.553999,0 -1,-0.446 -1,-1 z"
       style="opacity:1;vector-effect:none;fill:url(#linearGradient1727-4);fill-opacity:1;stroke:none;stroke-width:2;stroke-linecap:round;stroke-linejoin:round;stroke-miterlimit:4;stroke-dasharray:none;stroke-dashoffset:0;stroke-opacity:1"
       inkscape:connector-curvature="0" />
    <path
       id="rect1636-91"
       d="m 37,342.64999 c -1.108,0 -2,0.892 -2,2 0,1.108 0.892,2 2,2 h 1 v 2 h -1 c -1.108,0 -2,0.892 -2,2 0,1.108 0.892,2 2,2 1.108,0 2,-0.892 2,-2 v -1 h 2 v 1 c 0,1.108 0.892,2 2,2 1.108,0 2,-0.892 2,-2 0,-1.108 -0.892,-2 -2,-2 h -1 v -2 h 1 c 1.108,0 2,-0.892 2,-2 0,-1.108 -0.892,-2 -2,-2 -1.108,0 -2,0.892 -2,2 v 1 h -2 v -1 c 0,-1.108 -0.892,-2 -2,-2 z m 0,1 c 0.553999,0 1,0.446 1,1 v 1 h -1 c -0.553999,0 -1,-0.446 -1,-1 0,-0.554 0.446001,-1 1,-1 z m 6,0 c 0.553999,0 1,0.446 1,1 0,0.554 -0.446001,1 -1,1 h -1 v -1 c 0,-0.554 0.446001,-1 1,-1 z m -4,3 h 2 v 2 h -2 z m -2,3 h 1 v 1 c 0,0.554 -0.446001,1 -1,1 -0.553999,0 -1,-0.446 -1,-1 0,-0.554 0.446001,-1 1,-1 z m 5,0 h 1 c 0.553999,0 1,0.446 1,1 0,0.554 -0.446001,1 -1,1 -0.553999,0 -1,-0.446 -1,-1 z"
       style="opacity:1;vector-effect:none;fill:#ffffff;fill-opacity:1;stroke:none;stroke-width:2;stroke-linecap:round;stroke-linejoin:round;stroke-miterlimit:4;stroke-dasharray:none;stroke-dashoffset:0;stroke-opacity:1"
       inkscape:connector-curvature="0" />
  </g>
  <g
     id="start-here-kde">
    <g
       id="g1108"
       transform="translate(-31,-282.64999)">
      <path
         inkscape:connector-curvature="0"
         style="opacity:1;fill:url(#linearGradient923);fill-opacity:1;stroke:none;stroke-width:2.39314151;stroke-linecap:round;stroke-linejoin:round;stroke-miterlimit:4;stroke-dasharray:none;stroke-opacity:1"
         d="m 34,283.64999 h 26 c 1.108,0 2,0.892 2,2 v 26 c 0,1.108 -0.892,2 -2,2 H 34 c -1.108,0 -2,-0.892 -2,-2 v -26 c 0,-1.108 0.892,-2 2,-2 z"
         id="rect843" />
      <path
         inkscape:connector-curvature="0"
         style="opacity:1;fill:url(#linearGradient852);fill-opacity:1;stroke:none;stroke-width:2.23359871;stroke-linecap:round;stroke-linejoin:round;stroke-miterlimit:4;stroke-dasharray:none;stroke-opacity:1"
         d="m 34,284.64999 h 26 c 0.553999,0 1,0.446 1,1 v 26 c 0,0.554 -0.446001,1 -1,1 H 34 c -0.554,0 -1,-0.446 -1,-1 v -26 c 0,-0.554 0.446,-1 1,-1 z"
         id="rect843-3" />
      <path
         inkscape:connector-curvature="0"
         style="fill:url(#linearGradient931);fill-opacity:1;stroke:none;stroke-width:0.40000001;stroke-linecap:round;stroke-linejoin:round;stroke-miterlimit:4;stroke-dasharray:none;stroke-opacity:1"
         d="m 42,291.64997 c -1.662,0 -3,1.33802 -3,2.99999 0,1.66201 1.338,3 3,3 h 1 v 4.00003 h -1 c -1.662,0 -3,1.33799 -3,3 0,1.66197 1.338,3 3,3 1.662,0 3,-1.33803 3,-3 v -1.00003 h 4 v 1.00003 c 0,1.66197 1.338,3 3,3 1.662,0 3.000002,-1.33803 3.000002,-3 0,-1.66201 -1.338002,-3 -3.000002,-3 h -1 v -4.00003 h 1 c 1.662,0 3.000002,-1.33799 3.000002,-3 0,-1.66197 -1.338002,-2.99999 -3.000002,-2.99999 -1.662,0 -3,1.33802 -3,2.99999 v 1.00003 h -4 v -1.00003 c 0,-1.66197 -1.338,-2.99999 -3,-2.99999 z m 0,2.00001 c 0.554,0 1,0.44598 1,0.99998 v 1.00003 h -1 c -0.554,0 -1,-0.44602 -1,-1.00003 0,-0.554 0.446,-0.99998 1,-0.99998 z m 10,0 c 0.554,0 1.000001,0.44598 1.000001,0.99998 0,0.55401 -0.446001,1.00003 -1.000001,1.00003 h -1 v -1.00003 c 0,-0.554 0.446,-0.99998 1,-0.99998 z m -7,3.99998 h 4 v 4.00003 h -4 z m -3,6 h 1 v 1.00003 c 0,0.554 -0.446,0.99999 -1,0.99999 -0.554,0 -1,-0.44599 -1,-0.99999 0,-0.554 0.446,-1.00003 1,-1.00003 z m 9,0 h 1 c 0.554,0 1.000001,0.44603 1.000001,1.00003 0,0.554 -0.446001,0.99999 -1.000001,0.99999 -0.554,0 -1,-0.44599 -1,-0.99999 z"
         id="rect4510-2" />
      <path
         inkscape:connector-curvature="0"
         style="fill:#ffffff;fill-opacity:1;stroke:none;stroke-width:0.40000001;stroke-linecap:round;stroke-linejoin:round;stroke-miterlimit:4;stroke-dasharray:none;stroke-opacity:1"
         d="m 42,290.64997 c -1.662,0 -3,1.33802 -3,3 0,1.662 1.338,2.99999 3,2.99999 h 1 v 4.00003 h -1 c -1.662,0 -3,1.33799 -3,3 0,1.66197 1.338,3 3,3 1.662,0 3,-1.33803 3,-3 v -1.00003 h 4 v 1.00003 c 0,1.66197 1.338,3 3,3 1.662,0 3.000002,-1.33803 3.000002,-3 0,-1.66201 -1.338002,-3 -3.000002,-3 h -1 v -4.00003 h 1 c 1.662,0 3.000002,-1.33799 3.000002,-2.99999 0,-1.66198 -1.338002,-3 -3.000002,-3 -1.662,0 -3,1.33802 -3,3 v 1.00002 h -4 v -1.00002 c 0,-1.66198 -1.338,-3 -3,-3 z m 0,2.00001 c 0.554,0 1,0.44598 1,0.99999 v 1.00002 h -1 c -0.554,0 -1,-0.44602 -1,-1.00002 0,-0.55401 0.446,-0.99999 1,-0.99999 z m 10,0 c 0.554,0 1.000001,0.44598 1.000001,0.99999 0,0.554 -0.446001,1.00002 -1.000001,1.00002 h -1 v -1.00002 c 0,-0.55401 0.446,-0.99999 1,-0.99999 z m -7,3.99998 h 4 v 4.00003 h -4 z m -3,6 h 1 v 1.00003 c 0,0.554 -0.446,0.99999 -1,0.99999 -0.554,0 -1,-0.44599 -1,-0.99999 0,-0.554 0.446,-1.00003 1,-1.00003 z m 9,0 h 1 c 0.554,0 1.000001,0.44603 1.000001,1.00003 0,0.554 -0.446001,0.99999 -1.000001,0.99999 -0.554,0 -1,-0.44599 -1,-0.99999 z"
         id="rect4510" />
    </g>
    <rect
       y="0"
       x="0"
       height="32"
       width="32"
       id="rect944"
       style="fill:#ff00ff;fill-opacity:0;stroke-linecap:butt;stroke-linejoin:miter;paint-order:markers stroke fill" />
  </g>
</svg>
